<?xml version="1.0" encoding="UTF-8"?>
<!DOCTYPE svg PUBLIC "-//W3C//DTD SVG 1.1//EN" "http://www.w3.org/Graphics/SVG/1.1/DTD/svg11.dtd">
<!-- Creator: CorelDRAW -->
<svg xmlns="http://www.w3.org/2000/svg" xml:space="preserve" width="260px" height="59px" version="1.1" style="shape-rendering:geometricPrecision; text-rendering:geometricPrecision; image-rendering:optimizeQuality; fill-rule:evenodd; clip-rule:evenodd"
viewBox="0 0 260 59.09"
 xmlns:xlink="http://www.w3.org/1999/xlink"
 xmlns:xodm="http://www.corel.com/coreldraw/odm/2003">
 <defs>
  <style type="text/css">
   <![CDATA[
    .fil1 {fill:#BC8F0F;fill-rule:nonzero}
    .fil0 {fill:#E9F0F5;fill-rule:nonzero}
   ]]>
  </style>
 </defs>
 <g id="Слой_x0020_1">
  <metadata id="CorelCorpID_0Corel-Layer"/>
  <g id="_105553238030208">
   <polygon class="fil0" points="222.91,58.25 222.91,18.01 204.96,18.01 204.96,1.58 259.92,1.58 259.92,18.01 241.97,18.01 241.97,58.25 "/>
   <polygon class="fil1" points="139.42,58.25 139.42,1.58 158.27,1.58 158.27,30.01 178.14,1.58 195.69,1.58 195.69,58.25 176.83,58.25 176.83,29 156.36,58.25 "/>
   <polygon class="fil0" points="61.87,58.25 61.87,1.58 80.83,1.58 94.44,22.75 108.26,1.58 127.12,1.58 127.12,58.25 108.96,58.25 108.96,27.89 94.55,49.68 94.24,49.68 80.02,28.2 80.02,58.25 "/>
   <path class="fil0" d="M29.57 59.56c-5.72,0 -10.81,-1.32 -15.28,-3.98 -4.47,-2.65 -7.98,-6.22 -10.54,-10.69 -2.55,-4.47 -3.83,-9.36 -3.83,-14.67l0 -0.2c0,-5.38 1.28,-10.3 3.83,-14.77 2.56,-4.47 6.12,-8.06 10.69,-10.74 4.57,-2.69 9.82,-4.04 15.73,-4.04 5.72,0 10.51,1.08 14.37,3.23 3.87,2.15 7.01,5.08 9.43,8.77l-12.71 10.19c-1.41,-1.88 -2.97,-3.36 -4.68,-4.44 -1.72,-1.08 -3.82,-1.61 -6.31,-1.61 -3.42,0 -6.23,1.29 -8.42,3.88 -2.18,2.59 -3.27,5.7 -3.27,9.33l0 0.2c0,3.76 1.11,6.94 3.32,9.53 2.22,2.59 5.08,3.88 8.58,3.88 2.48,0 4.6,-0.52 6.35,-1.56 1.75,-1.05 3.39,-2.47 4.94,-4.29l12.5 9.58c-2.55,3.77 -5.78,6.77 -9.68,9.02 -3.9,2.26 -8.91,3.38 -15.02,3.38z"/>
  </g>
 </g>
</svg>
