<svg xmlns="http://www.w3.org/2000/svg" viewBox="0 0 267.78 288.48"><defs><style>.cls-1{fill:#fff;}.cls-2{fill:#a6a5ad;}.cls-3{fill:#e6b6c6;}.cls-4{fill:#ffa3c8;}.cls-5{fill:none;stroke:#000;stroke-linecap:round;stroke-linejoin:round;stroke-width:3px;}</style></defs><title>cute-cats-laptop</title><g id="Layer_17"><path d="M140.92,289.24a16.25,16.25,0,0,1-9.72-3.14c-3.56-2.69-5.4-6.49-6.83-9.84-.75-1.74-1.42-3.37-2-4.94-5.64-2.53-12-5.11-18.63-6.1a35.32,35.32,0,0,0-5.27-.4,26.25,26.25,0,0,0-11.69,2.51,15.49,15.49,0,0,1-5.14,5.8,14.29,14.29,0,0,1-7.92,2.34,18.3,18.3,0,0,1-12.41-5.15c-4.29-4.16-6.28-9.56-7.79-14.78-.41-1.43-.81-2.91-1.19-4.43l-6.7-.68A11.88,11.88,0,0,1,35,239.1l-3.3-86.32a11.84,11.84,0,0,1,11.84-12.3,10.59,10.59,0,0,1,1.37.08l3.18.37a6.34,6.34,0,0,1,.42-11.5c4.16-1.74,8.42-3.34,12.74-4.79-.69-1.13-1.34-2.31-1.93-3.51-2.85.55-5.65,1.23-8.37,2a6.25,6.25,0,0,1-1.81.27,6.34,6.34,0,0,1-5.57-9.35A6.28,6.28,0,0,1,47.29,111c2.6-.77,5.26-1.45,8-2-.13-.72-.25-1.45-.35-2.18-1.2-.12-2.37-.22-3.53-.31a6.33,6.33,0,0,1-5.86-6.77,6.36,6.36,0,0,1,6.32-5.88h.42l2.57.22c2.31-18.32,15.05-33.31,31.34-36.81A79.51,79.51,0,0,1,96.5,22.35,28.64,28.64,0,0,1,102,15.11a16,16,0,0,1,10.63-4.35h.11c6.18.06,10.71,4.12,13.58,7.17a71.33,71.33,0,0,1,13.51,20.68,89.19,89.19,0,0,1,11.84-.79,87.74,87.74,0,0,1,21.49,2.68,70.14,70.14,0,0,1,27.34-22.1,23.29,23.29,0,0,1,9.38-2.34,13.72,13.72,0,0,1,6.5,1.57c4.42,2.34,6.49,6.55,7.94,10.35A99.6,99.6,0,0,1,230,75.88l.46,1.16c3.54,8.81,7.18,17.9,9.2,27.7a76.85,76.85,0,0,1,15.25,4.1,6.23,6.23,0,0,1,3.51,3.34,6.3,6.3,0,0,1,.13,4.84,6.36,6.36,0,0,1-8.2,3.64,61.41,61.41,0,0,0-9-2.7c.09,1.88.11,3.73.07,5.55,3.3,1.24,6.52,2.63,9.6,4.15A6.33,6.33,0,1,1,245.37,139c-1.83-.9-3.72-1.75-5.64-2.55-.19.77-.38,1.53-.59,2.28,2.11,1.19,4.16,2.45,6.13,3.75a6.33,6.33,0,0,1-7,10.56c-1.31-.87-2.67-1.72-4.07-2.53a46.18,46.18,0,0,1-12.15,13.89,147.27,147.27,0,0,1,11.88,50c0-.06,0-.12.08-.19a27.71,27.71,0,0,1,21.66-15.9,25.58,25.58,0,0,1,3-.18,27.52,27.52,0,0,1,21.72,10.62c3.2,4.18,5,9,6.28,13.2,1.69,5.42,3.3,11.87,2.49,18.73-1.05,8.85-6.11,17.33-14.25,23.88a50.85,50.85,0,0,1-31.3,11c-.76,0-1.51,0-2.26-.05a50.76,50.76,0,0,1-27.8-10.14,46.44,46.44,0,0,1-15.72,8.24c-6.32,1.8-12.65,2.16-18.77,2.5H179c-1.67.1-3.35.19-5,.32-5.5.41-12.39,1.32-17.56,4.66a21.61,21.61,0,0,1-8.17,6.59A18.1,18.1,0,0,1,140.92,289.24Zm91.3-50.9a25.73,25.73,0,0,0,11.45,6.33,16.7,16.7,0,0,0,3.58.39,13.29,13.29,0,0,0,9.41-3.52,9.24,9.24,0,0,0,2.19-9.27l-.2.27a18.52,18.52,0,0,1-4.6,4.81,12.56,12.56,0,0,1-7.07,2.12,13.92,13.92,0,0,1-3.13-.36,15.14,15.14,0,0,1-9.6-7,12.75,12.75,0,0,1-.63-1.22c-.22,1.73-.49,3.39-.83,5Q232.54,237.13,232.22,238.34Zm-156-94.13c-.92-2.12-1.75-4.28-2.47-6.48a41.07,41.07,0,0,1-3.57-2.64,173,173,0,0,0-16.84,6,6.83,6.83,0,0,1-1,.31ZM67.36,95.82c1.56.29,3.11.6,4.66.94A73.77,73.77,0,0,1,82.38,72.08C74.42,76.46,68.62,85.37,67.36,95.82Z" class="cls-1" transform="translate(-26.64 -5.76)"/><path d="M112.62,15.76h.06c4.22,0,7.55,3,10,5.6a65.91,65.91,0,0,1,14,22.81,85.27,85.27,0,0,1,15-1.35,82.63,82.63,0,0,1,23.52,3.42A65.73,65.73,0,0,1,202.53,23a18.6,18.6,0,0,1,7.34-1.9,8.75,8.75,0,0,1,4.16,1c2.94,1.56,4.43,4.62,5.6,7.71a94.54,94.54,0,0,1,5.19,46.76l1,2.38c3.5,8.71,7.11,17.73,9,27.23.2,1,.38,2.05.55,3.07a72.37,72.37,0,0,1,17.72,4.3,1.33,1.33,0,1,1-1,2.49,69.62,69.62,0,0,0-16.36-4.06,70.91,70.91,0,0,1,.45,15,103.66,103.66,0,0,1,12.58,5.19,1.33,1.33,0,0,1-.59,2.53,1.25,1.25,0,0,1-.59-.14,100.53,100.53,0,0,0-11.7-4.87,54.29,54.29,0,0,1-1.77,8.43c-.31,1.05-.66,2.07-1,3.08a96.47,96.47,0,0,1,9.43,5.49,1.34,1.34,0,0,1,.38,1.85,1.36,1.36,0,0,1-1.12.59,1.3,1.3,0,0,1-.73-.22,95.56,95.56,0,0,0-9-5.23,40.82,40.82,0,0,1-16.36,19A140.77,140.77,0,0,1,229,215.09a74.6,74.6,0,0,1-1.06,19.8,47.29,47.29,0,0,1-1.32,4.92c3.48,3.67,9,8.22,16,9.75a21.83,21.83,0,0,0,4.65.5,18.28,18.28,0,0,0,12.95-5c4.5-4.5,5.46-12.05,2.14-16.82-.53-.76-1.61-2-2.94-2.18h-.23c-1.55,0-2.95,1.44-3.66,2.33-.32.41-.63.83-.94,1.25a13.8,13.8,0,0,1-3.32,3.56,7.62,7.62,0,0,1-4.27,1.26,8.88,8.88,0,0,1-2-.23,10.05,10.05,0,0,1-6.38-4.63c-2.12-3.63-2.12-8.62,0-13.34a22.21,22.21,0,0,1,37.88-4.46c2.73,3.56,4.3,7.88,5.47,11.64,1.53,4.91,3,10.73,2.3,16.65-.89,7.54-5.3,14.85-12.42,20.57a45.42,45.42,0,0,1-28.16,9.89c-.68,0-1.35,0-2-.05a45.37,45.37,0,0,1-28.05-11.64,43.74,43.74,0,0,1-17.07,9.93c-5.78,1.65-11.83,2-17.68,2.31-1.75.1-3.5.2-5.25.33-6.38.48-14.47,1.61-20.68,6a16.91,16.91,0,0,1-6.71,5.69,12.87,12.87,0,0,1-5.26,1.13,11.13,11.13,0,0,1-6.71-2.13c-2.59-1.95-4-4.93-5.25-7.82-.88-2.05-1.8-4.29-2.68-6.67-6.45-3-14-6.17-21.83-7.35a41.34,41.34,0,0,0-6-.45,30.43,30.43,0,0,0-15.5,3.89A11.56,11.56,0,0,1,78.86,269a9.31,9.31,0,0,1-5.17,1.51,13.37,13.37,0,0,1-8.93-3.73c-3.45-3.35-5.15-8-6.46-12.59-.73-2.52-1.38-5.09-2-7.66l-10.23-1a6.88,6.88,0,0,1-6.16-6.55l-3.29-86.32a6.84,6.84,0,0,1,6.84-7.11,7.09,7.09,0,0,1,.79,0L85,150.26a69.3,69.3,0,0,1-7-15.8,34.5,34.5,0,0,1-6.52-5,181.91,181.91,0,0,0-20,7,1.3,1.3,0,0,1-.51.11,1.34,1.34,0,0,1-.51-2.57,183.1,183.1,0,0,1,19-6.72,39.4,39.4,0,0,1-7.08-11.79,95.85,95.85,0,0,0-12.8,2.85,1.21,1.21,0,0,1-.38.06,1.34,1.34,0,0,1-.38-2.62A97.16,97.16,0,0,1,61.38,113a43,43,0,0,1-1.89-10.63c-2.58-.34-5.16-.62-7.76-.8a1.34,1.34,0,0,1-1.23-1.43,1.33,1.33,0,0,1,1.33-1.24h.09c2.52.19,5,.45,7.52.77.21-20.13,14.09-36.59,31.59-38a74.88,74.88,0,0,1,9.81-36.77,23.77,23.77,0,0,1,4.51-6,11,11,0,0,1,7.27-3.06M76,102.83C78,89.64,83.37,77.68,91.32,68.59c-.13-1.43-.21-2.87-.26-4.3C74.91,65.72,62.15,81.18,62.1,100A135.91,135.91,0,0,1,76,102.83m-11.9,9.76a98.87,98.87,0,0,1,11-.79c0-.8.07-1.61.13-2.42.1-1.3.24-2.6.4-3.89a132.45,132.45,0,0,0-13.39-2.76,40.22,40.22,0,0,0,1.86,9.86m8.17,13.93c1.23-.34,2.46-.67,3.69-1A69.47,69.47,0,0,1,75,114.47a98.8,98.8,0,0,0-10,.69,36.5,36.5,0,0,0,7.23,11.36m4.72,4.11c-.2-.81-.38-1.63-.55-2.46l-1.94.49a31.19,31.19,0,0,0,2.49,2M112.62,5.76h0a21,21,0,0,0-14,5.65,33.43,33.43,0,0,0-6.47,8.46,84.41,84.41,0,0,0-10.7,33.48A43.5,43.5,0,0,0,61.07,67.21,50.29,50.29,0,0,0,50.62,88.94a11.32,11.32,0,0,0-7.49,18.52,11.32,11.32,0,0,0,.19,19.38,11.42,11.42,0,0,0-3.74,9.09,16.88,16.88,0,0,0-12.93,17L30,239.29A16.92,16.92,0,0,0,45.1,255.41l3.25.33c.11.4.23.79.34,1.19,1.62,5.6,4,12,9.11,17a23.37,23.37,0,0,0,15.89,6.56,19.35,19.35,0,0,0,10.68-3.16,20,20,0,0,0,5.87-6.07,22.58,22.58,0,0,1,8.2-1.42,32.16,32.16,0,0,1,4.53.34,63.18,63.18,0,0,1,15.48,4.91c.41,1,.85,2.07,1.32,3.16,1.22,2.85,3.5,8.15,8.42,11.86a21.2,21.2,0,0,0,12.73,4.15,23.06,23.06,0,0,0,9.34-2,26.35,26.35,0,0,0,9.48-7.34c4.19-2.41,9.93-3.14,14.59-3.49,1.62-.12,3.25-.21,5-.31h.06c6.11-.34,13-.73,19.88-2.69a49.52,49.52,0,0,0,14.4-6.89,55.74,55.74,0,0,0,27.5,9c.83,0,1.67.06,2.5.06a55.1,55.1,0,0,0,34.43-12.1c9.17-7.37,14.88-17,16.08-27.18.93-7.79-.83-14.89-2.68-20.8-1.44-4.61-3.4-10-7.09-14.76a32.53,32.53,0,0,0-25.68-12.58,31.13,31.13,0,0,0-3.62.21,32.6,32.6,0,0,0-17.49,7.89,150.59,150.59,0,0,0-9.49-35.33,50.76,50.76,0,0,0,7.63-8.54,11.34,11.34,0,0,0,17.14-11.85,10.37,10.37,0,0,0-.47-1.65,11.35,11.35,0,0,0,3.9-18.43,11.4,11.4,0,0,0,6.85-6.62,11.34,11.34,0,0,0-6.51-14.65,80.63,80.63,0,0,0-12.89-3.75c-2.17-8.94-5.48-17.19-8.69-25.2a104.65,104.65,0,0,0-6.09-49c-1.67-4.41-4.35-9.86-10.27-13a18.7,18.7,0,0,0-8.84-2.15,28.1,28.1,0,0,0-11.42,2.77,74.8,74.8,0,0,0-27.27,21.08,92.36,92.36,0,0,0-19.52-2.09q-4.38,0-8.81.41A76.38,76.38,0,0,0,130,14.5c-3.5-3.71-9.08-8.66-17.17-8.74Z" class="cls-1" transform="translate(-26.64 -5.76)"/><path d="M92.62,69.49s-.06-10.73-.06-10.66.76-7.77.76-7.77,2.91-14.14,2.91-14.5S102.52,25,102.52,25l4.76-6.71,4.66-1.43,4,.4,5.85,5.17,6.38,8,4,5.66,3,7.83,1.05,1.88,7.38-1.06s15.74,0,16,0S170,46.42,170,46.42l5.61,2,5.84-8.53,12.42-10.27,10.82-5.08,6-2.25,2.84,1.15,5.67,8.88,2.08,5,1.68,9,.65,7.82.92,10.91-.38,7-.47,5.13,1.59,4,5.78,15.66,1.95,7.06,2.19,15.2-.23,8.17-3.63,15.27-3.05,7.19L220.37,158l-6.27,4.32,1.84,3.9L222,182.42l4.28,19,1.14,9.38-.12,14.45-.38,8.49-1.19,7.16,2.35,2.3,8.36,5.75,6.48,2.69,9.93-.77,6.86-3.3,5.12-7.06,1-5.83-1.32-5.45-3.14-3.73-1.62-1-2.79.72-2.78,2.78-3.05,3.59-3.77,1.17-3.15-.09a28.44,28.44,0,0,1-3.14-2c-.27-.36-1.95-3.3-1.95-3.3l-.62-3.33.2-3,.92-3.32,4.46-6.78,8.32-5.26,5.19-1.09,6.25.61,5.22,2,5.86,3.59L280,221.64l3.59,10.18-.64,9L279,251.66l-5,7.27-8.38,4.66L257,267.37,243.64,270l-12-2.31-7.89-3.19-8.05-4.61-1.7-2.81-8.74,6.69-7.12,3.37-12,2.32-18.4,1.51-7.82,1.8L153.08,276l-3.76,3.82-4.52,3.31s-2.68,0-3.13,0-3.95-.51-3.95-.51l-1.74-.79s-4.64-4.94-4.54-5.06-3.29-8.09-3.29-8.09L125.62,266s-14-5.34-14.31-5.42-9.06-1.72-9.06-1.72l-9.69.31-7.9,2.4-2.93,2.14-2.67,3.73-3.12,1.9s-4.66.73-5.11.64-3.68-1.52-3.68-1.52l-3-4.34-2.69-4.89L59.71,254,54,237l-2.16-70.28,5.93-13.11,31.51,5.75-1.17-4.76L87,151l-3-5.23-4.55-11.22-3-13.82L76,112.06s2.24-13.48,2.3-13.72,6.49-17.59,6.49-17.59l6-9.14L92.64,70Z" class="cls-1" transform="translate(-26.64 -5.76)"/><path d="M56.55,245.36s-11.62-1.34-12-1.53-2-1.63-2-1.63l-1-2.23-.19-3L41,227.84l-1.63-42.79-1.89-28,1.22-6.94L40,147.68l5.23-.67,67.66,8,46.74,5.43,6.53,2.23,1.16,2.2.73,9.68s1.45,28.75,1.45,28.87,1.34,14.27,1.34,14.27L171.88,235l1.6,1,5.27-6.35.19.55.73,3.8,2.11,2a11,11,0,0,0,2.62.28,16.44,16.44,0,0,0,1.94-1.22,5.16,5.16,0,0,0,1.09-1.82,17.71,17.71,0,0,0,.22-3l5.15,1,10.81.71-30.13,28s-15.27-1.47-15.44-1.81.39-6.34.39-6.34l.29-12.2-.68-6.95s-4.72-10.3-5.41-10.9-7.64-5.41-7.64-5.41l-5.75-.25-7,2.31-6,9.53-3.43,8.54v11.75l.92,6.14-38.75-4.78,1.65-8.78V230.19s-2.49-11.1-2.66-11.36-4-7-4-7l-10.38-5.41-5.06.87-3.35,2.39-3.44,6.15-2.53,5.7-.47,6.95.47,9.69Z" class="cls-2" transform="translate(-26.64 -5.76)"/><path d="M131.18,113.42l9.55-.15a6.33,6.33,0,0,1-4,4.63,3.57,3.57,0,0,1-.9.26,3.49,3.49,0,0,1-3-1.43A11.56,11.56,0,0,1,131.18,113.42Z" class="cls-3" transform="translate(-26.64 -5.76)"/><ellipse cx="151.44" cy="103.23" rx="9.55" ry="11.82"/><ellipse cx="77.06" cy="99.43" rx="7.71" ry="9.54"/><path d="M216.51,65.06a68.57,68.57,0,0,0-8.68-5.54A22.83,22.83,0,0,0,198,56.86,13,13,0,0,1,199.32,51a18,18,0,0,0-7,2.43,65.44,65.44,0,0,1,13-19.3,12.4,12.4,0,0,1,2.93-2.43,4.59,4.59,0,0,1,6,1.14c1.16,1.35,1.24,3.39,1.54,5.07a95.91,95.91,0,0,1,1.38,17.34A93,93,0,0,1,216.51,65.06Z" class="cls-4" transform="translate(-26.64 -5.76)"/><path d="M99.16,49.18c-1,4.7-1.74,9.6-.61,14.26a27.77,27.77,0,0,1,16.22-8.12l-1.13-4.57,5.85,2a83,83,0,0,0-7.15-21.11,11.25,11.25,0,0,0-1.78-2.81c-2.26-2.42-5.51-1.42-6.5,1.51-1.31,3.9-2.36,7.9-3.34,11.9Q99.88,45.68,99.16,49.18Z" class="cls-4" transform="translate(-26.64 -5.76)"/><ellipse cx="103.11" cy="228.45" class="cls-4" rx="2.97" ry="4.01"/><ellipse cx="111.08" cy="223.42" class="cls-4" rx="3.16" ry="4.03"/><ellipse cx="120.22" cy="226.35" class="cls-4" rx="3.11" ry="4.27"/><ellipse cx="32.51" cy="217.38" class="cls-4" rx="2.6" ry="3.43"/><ellipse cx="39.71" cy="213.44" class="cls-4" rx="2.9" ry="3.94"/><ellipse cx="47.91" cy="218.02" class="cls-4" rx="2.9" ry="4.06"/><path d="M131.47,244.79c.14,1.41,1,3,2.37,3.13,1.24.12,2.32-.9,3.56-1,1.71-.18,3.23,1.34,4.95,1.24a3.21,3.21,0,0,0,2.4-1.43,5,5,0,0,0,.82-2.73,7.25,7.25,0,0,0-2.79-5.88C137.83,234.29,130.89,238.8,131.47,244.79Z" class="cls-4" transform="translate(-26.64 -5.76)"/><path d="M61.8,229.51a5.71,5.71,0,0,0-1.69,4.31,3.48,3.48,0,0,0,3,3.18c1.8.1,3.33-1.51,5.14-1.51,1.53,0,2.92,1.18,4.44,1A3.3,3.3,0,0,0,75.34,233,6.06,6.06,0,0,0,73.09,229c-1.54-1.36-4.34-2.94-6.5-2.65C65,226.53,62.91,228.33,61.8,229.51Z" class="cls-4" transform="translate(-26.64 -5.76)"/><ellipse cx="67.51" cy="193.77" rx="1.78" ry="2.5"/><path d="M197.68,132.49A96,96,0,0,1,241.91,148" class="cls-5" transform="translate(-26.64 -5.76)"/><path d="M201.21,122.9a104.05,104.05,0,0,1,47.11,10.65" class="cls-5" transform="translate(-26.64 -5.76)"/><path d="M201.45,114.86a72.44,72.44,0,0,1,51.27.09" class="cls-5" transform="translate(-26.64 -5.76)"/><path d="M52,100.41a133.47,133.47,0,0,1,34.67,7.21" class="cls-5" transform="translate(-26.64 -5.76)"/><path d="M49.23,117.3a96.7,96.7,0,0,1,39.7-3.21" class="cls-5" transform="translate(-26.64 -5.76)"/><path d="M51,135.47a182.72,182.72,0,0,1,37.84-11.16" class="cls-5" transform="translate(-26.64 -5.76)"/><polygon points="109.49 113.75 103.15 107.42 114.99 107.42 109.49 113.75" class="cls-5"/><ellipse cx="161.72" cy="102.44" class="cls-5" rx="38.18" ry="39.78"/><ellipse cx="67" cy="94.56" class="cls-5" rx="32.74" ry="37.28"/><path d="M126.24,97.32a21.06,21.06,0,0,1,24.25,2.45" class="cls-5" transform="translate(-26.64 -5.76)"/><path d="M215,36.3a4.47,4.47,0,0,0-4.16-4.76c-2.25-.06-4.15,1.6-5.71,3.22a73.57,73.57,0,0,0-13.28,19.17,17.64,17.64,0,0,1,8-2.79l-1.71,5.47a29.47,29.47,0,0,1,19.32,9.74" class="cls-5" transform="translate(-26.64 -5.76)"/><path d="M99.82,63.36a35.18,35.18,0,0,1,15-8c-.46-1.75-.76-3.24-1.23-5l6.31,2.95a80.46,80.46,0,0,0-6.25-20.57,12.15,12.15,0,0,0-2.25-3.63,4.61,4.61,0,0,0-3.86-1.48,2.89,2.89,0,0,0-2.48,3" class="cls-5" transform="translate(-26.64 -5.76)"/><path d="M123.82,123.42a10.67,10.67,0,0,0,2.89,4.7,6.92,6.92,0,0,0,5.11,1.85,5.16,5.16,0,0,0,4.34-3.07,7.69,7.69,0,0,0,7.7,3.55,7.42,7.42,0,0,0,5.76-6" class="cls-5" transform="translate(-26.64 -5.76)"/><path d="M152,276.73c6.17-4.48,14-5.84,21.64-6.42s15.33-.5,22.66-2.59c8.83-2.53,16.18-8.49,22.21-15.42a38.44,38.44,0,0,0,8.24-17.48,73.68,73.68,0,0,0,1-19.45,138.17,138.17,0,0,0-13.66-53.09c9.31-5,15.87-14.25,18.88-24.36s2.7-21,.63-31.32-6.12-19.92-10-29.72a93.53,93.53,0,0,0-5.06-46.45c-1-2.74-2.39-5.63-5-7-3.17-1.68-7.06-.51-10.34.95A64.68,64.68,0,0,0,175.88,48a82,82,0,0,0-40-2.12,64.51,64.51,0,0,0-14-23.42c-2.45-2.6-5.46-5.14-9-5.17A9.61,9.61,0,0,0,106.38,20a22.86,22.86,0,0,0-4.25,5.69,73.63,73.63,0,0,0-9.3,43.55c-9.86,11-15.09,25.67-16.18,40.43a68.3,68.3,0,0,0,10.94,42.23" class="cls-5" transform="translate(-26.64 -5.76)"/><path d="M170.79,208.48a83.77,83.77,0,0,1,10.61-25.15" class="cls-5" transform="translate(-26.64 -5.76)"/><path d="M173.48,235.35a16.1,16.1,0,0,0,5.2-6.52c.17,1.55.18,3.82,1,5.16a4.68,4.68,0,0,0,3.81,2.39c2.12,0,3.85-2,4.18-4.07a9.44,9.44,0,0,0-1.49-6.05,63.86,63.86,0,0,0,21.51-24.82" class="cls-5" transform="translate(-26.64 -5.76)"/><path d="M225.45,240.61c4.6,4.95,10.4,9,17,10.45s14-.06,18.82-4.84,6.15-13,2.3-18.52a5.83,5.83,0,0,0-3.9-2.75c-2-.2-3.81,1.25-5.07,2.82s-2.29,3.4-4,4.53c-3.48,2.35-8.66.47-10.78-3.16s-1.65-8.3.07-12.13a20.87,20.87,0,0,1,35.61-4.18c2.53,3.29,4,7.26,5.26,11.22,1.62,5.21,2.88,10.68,2.24,16.1-.92,7.81-5.79,14.75-11.93,19.68a43.46,43.46,0,0,1-57.55-2.71" class="cls-5" transform="translate(-26.64 -5.76)"/><path d="M55.53,225.23a55.85,55.85,0,0,0,1,15.25A132.8,132.8,0,0,0,59.71,254c1.26,4.36,2.85,8.84,6.11,12s8.65,4.57,12.44,2.07c3-2,4.24-5.82,5.07-9.37a113.94,113.94,0,0,0,3-24.33c.07-5-.2-10.07-1.86-14.78s-4.84-9.06-9.36-11.2c-4.2-2-10.79-1.89-14,2S56,220.14,55.53,225.23Z" class="cls-5" transform="translate(-26.64 -5.76)"/><path d="M123,247c.53,9.37,3.65,18.39,7.35,27,1.16,2.7,2.47,5.5,4.83,7.27a10.69,10.69,0,0,0,10.62.85,16.64,16.64,0,0,0,7.72-7.8,38.61,38.61,0,0,0,3.28-10.65,121.81,121.81,0,0,0,2-17.35c.24-5.6.08-11.32-1.72-16.63s-5.42-10.22-10.56-12.48c-12.84-5.65-20.78,8.36-22.83,18.93A43.78,43.78,0,0,0,123,247Z" class="cls-5" transform="translate(-26.64 -5.76)"/><path d="M84.85,197.93a22.56,22.56,0,0,1,33.61,9.41V197c-4.66,4.94-10.11,9.28-16.85,10.08C95.18,207.81,87.82,203.69,84.85,197.93Z" class="cls-5" transform="translate(-26.64 -5.76)"/><path d="M81.73,263.16c6.73-4.26,15.17-5.18,23-4s15.33,4.29,22.57,7.62" class="cls-5" transform="translate(-26.64 -5.76)"/><path d="M123.82,253.9c.08.42-38.75-4.41-38.75-4.41" class="cls-5" transform="translate(-26.64 -5.76)"/><path d="M57.55,245.46l-11.18-1.13a5.51,5.51,0,0,1-5-5.27l-3.3-86.32a5.52,5.52,0,0,1,6.15-5.69l118.32,13.76a5.51,5.51,0,0,1,4.86,5.13l6,93.92-15.74-2.09" class="cls-5" transform="translate(-26.64 -5.76)"/><polyline points="161.76 224.43 177.76 226.23 146.84 254.1" class="cls-5"/><polyline points="146.84 233.13 157.75 234.23 146.84 245.41" class="cls-5"/><line x1="109.52" x2="109.52" y1="121.14" y2="113.75" class="cls-5"/></g></svg>